PathFileType	4	(X/Y/Z)	C:/Users/opensim2020/Desktop/walking_exp_matlab/subject06_walking14_straight_01.trc																																																																																																																																					
DataRate	CameraRate	NumFrames	NumMarkers	Units	OrigDataRate	OrigDataStartFrame	OrigNumFrames																																																																																																																																	
100	100	5	45	mm	100	886	203																																																																																																																																	
Frame#	Time	LFHD			RFHD			LBHD			RBHD			C7			T10			CLAV			STRN			RBAK			LSHO			LUPA			LELB			LFRM			LWRA			LWRB			LFIN			RSHO			RUPA			RELB			RFRM			RWRA			RWRB			RFIN			LASI			RASI			LPSI			RPSI			LTHI			LKNE			LTIB			LANK			LHEE			LTOE			RTHI			RKNE			RTIB			RANK			RHEE			RTOE			*39			*40			*41			*42			*43			*44		
		X1	Y1	Z1	X2	Y2	Z2	X3	Y3	Z3	X4	Y4	Z4	X5	Y5	Z5	X6	Y6	Z6	X7	Y7	Z7	X8	Y8	Z8	X9	Y9	Z9	X10	Y10	Z10	X11	Y11	Z11	X12	Y12	Z12	X13	Y13	Z13	X14	Y14	Z14	X15	Y15	Z15	X16	Y16	Z16	X17	Y17	Z17	X18	Y18	Z18	X19	Y19	Z19	X20	Y20	Z20	X21	Y21	Z21	X22	Y22	Z22	X23	Y23	Z23	X24	Y24	Z24	X25	Y25	Z25	X26	Y26	Z26	X27	Y27	Z27	X28	Y28	Z28	X29	Y29	Z29	X30	Y30	Z30	X31	Y31	Z31	X32	Y32	Z32	X33	Y33	Z33	X34	Y34	Z34	X35	Y35	Z35	X36	Y36	Z36	X37	Y37	Z37	X38	Y38	Z38	X39	Y39	Z39	X40	Y40	Z40	X41	Y41	Z41	X42	Y42	Z42	X43	Y43	Z43	X44	Y44	Z44	X45	Y45	Z45
																																																																																																																																								
77	0.76	-526.51776	1673.73914	1378.81567	-524.07867	1660.27588	1509.91626	-659.73859	1618.87512	1379.58228	-655.80029	1610.89661	1508.94153	-660.17218	1460.35388	1432.89636	-697.75104	1133.34229	1435.53674	-549.16681	1382.9043	1433.17932	-510.62375	1206.64941	1424.38538	-732.6936	1289.72156	1510.08093	-606.01086	1415.71326	1271.25671	-596.57001	1212.07251	1203.23682	-588.01007	1098.97021	1194.53369	-528.38037	960.77948	1172.15137	-432.67502	872.34979	1208.17029	-492.06351	847.44049	1178.19983	-426.99792	784.72711	1172	-594.16656	1413.70276	1594.16821	-641.92834	1216.76721	1679.88708	-639.88214	1094.69812	1692.24219	-632.71997	974.94232	1710.56885	-579.20764	832.04523	1684.42822	-636.26312	836.76514	1720.55176	-604.63708	758.12958	1725.11389	-531.79315	962.92554	1323.96802	-525.18207	976.09058	1544.10083	-687.83984	996.45111	1355.84924	-677.17645	1006.63159	1523.49939	-595.57532	643.90094	1274.34412	-584.99133	481.57809	1292.84521	-782.78625	334.42899	1298.82483	-918.67926	230.36722	1334.05591	-950.27301	252.1429	1382.60352	-872.99951	89.75121	1333.13403	-557.76208	644.14032	1598.14514	-539.65393	521.93042	1566.87207	-578.21362	256.14578	1558.53479	-587.52362	72.72997	1504.13611	-627.27887	49.2225	1458.86072	-432.91504	39.25714	1500.35193	-625.7981	1710.8689	1440.28882	NaN	NaN	NaN	NaN	NaN	NaN	NaN	NaN	NaN	NaN	NaN	NaN	NaN	NaN	NaN
78	0.77	-516.10797	1674.22583	1379.06885	-513.48334	1661.01111	1510.14783	-649.59528	1619.88452	1380.30872	-645.42242	1612.17004	1509.64905	-650.38446	1461.27991	1434.03479	-688.22089	1134.09363	1436.9281	-539.71765	1383.62756	1433.98132	-501.32861	1207.37122	1425.4342	-723.10004	1290.69177	1511.74402	-597.10535	1416.32166	1272.16699	-589.20026	1212.396	1204.46167	-582.40375	1099.3335	1195.92566	-526.25256	959.66986	1173.11646	-432.46304	868.50696	1208.08789	-492.76373	845.21252	1178.92236	-429.53009	780.78564	1171.72253	-583.88885	1414.5708	1595.11816	-629.5072	1217.28479	1681.42493	-626.09509	1095.28308	1693.98828	-617.21088	975.63007	1712.40881	-562.21027	833.63446	1685.77771	-618.96277	837.54364	1722.40881	-586.1814	759.32587	1726.69519	-521.49072	964.19061	1325.48279	-516.23376	976.54639	1545.66199	-678.03204	997.37567	1356.83875	-668.41547	1007.16766	1524.64771	-580.87933	645.35846	1274.78589	-567.39752	483.32413	1293.35083	-764.03082	335.58673	1300.36938	-898.90643	230.24895	1335.67871	-930.80194	251.17105	1384.62683	-849.91522	91.47583	1333.0791	-552.32318	643.98798	1598.88232	-535.6969	521.41028	1567.83337	-577.56445	256.18027	1558.66968	-587.5813	72.88445	1503.97961	-627.14276	49.43246	1458.57898	-432.86755	38.88308	1500.78699	-615.16034	1711.86816	1440.76208	NaN	NaN	NaN	NaN	NaN	NaN	NaN	NaN	NaN	NaN	NaN	NaN	NaN	NaN	NaN
79	0.78	-505.8006	1674.67395	1379.35156	-502.97119	1661.69885	1510.50195	-639.61304	1620.97253	1381.03076	-635.08911	1613.46057	1510.36426	-640.94287	1462.16089	1435.17871	-678.91669	1134.86426	1438.36157	-530.36926	1384.32532	1434.73743	-492.07968	1208.0603	1426.48901	-713.58679	1291.72974	1513.25623	-588.15869	1416.92249	1273.02063	-582.06946	1212.82666	1205.65308	-576.73187	1099.65442	1197.12244	-524.15796	958.6001	1173.83691	-432.58981	864.8244	1207.94263	-494.15829	843.41644	1179.36121	-432.50183	777.32184	1171.4447	-573.83105	1415.42065	1595.97058	-617.12738	1217.81775	1682.85876	-612.51868	1095.90771	1695.54932	-601.99231	976.43866	1713.97583	-545.05267	835.23114	1687.20166	-601.41077	838.26318	1724.25476	-567.56293	760.77527	1728.51904	-511.16205	965.51001	1327.10229	-507.4946	976.9494	1547.22009	-668.28888	998.35986	1357.84863	-659.09271	1007.57745	1525.68506	-566.19781	646.95422	1275.05029	-550.09985	485.21188	1293.82751	-744.92023	335.96655	1301.71228	-878.61328	229.01132	1337.22778	-910.85919	248.97026	1386.56018	-827.26044	91.54975	1333.08667	-546.97284	643.60858	1599.31128	-531.48718	520.99152	1568.89514	-576.37384	256.27048	1558.91943	-587.5191	73.03011	1503.89636	-627.09167	49.78887	1458.47534	-432.62195	38.56817	1501.1543	-604.53204	1712.88623	1441.17737	NaN	NaN	NaN	NaN	NaN	NaN	NaN	NaN	NaN	NaN	NaN	NaN	NaN	NaN	NaN
80	0.79	-495.55493	1675.01318	1379.60962	-492.44666	1662.25964	1510.79688	-629.58234	1621.97424	1381.72107	-624.82587	1614.72107	1511.11279	-631.18481	1462.95618	1436.08862	-669.37958	1135.50525	1439.61462	-520.93842	1385.01123	1435.58191	-482.97397	1208.71252	1427.45313	-703.98688	1292.6521	1514.59583	-579.07654	1417.5835	1273.87195	-575.12128	1213.24365	1206.59216	-571.13214	1100.10376	1198.26599	-522.21661	957.81299	1174.53918	-432.96381	861.37585	1207.94116	-495.47186	841.76416	1179.81787	-435.74503	773.91162	1171.27271	-563.95764	1416.30322	1596.77063	-604.84229	1218.40442	1684.19006	-598.86804	1096.60107	1697.11218	-586.65308	977.32275	1715.58289	-527.90363	837.01013	1688.61475	-583.94122	839.22504	1726.01086	-549.03082	762.22467	1730.16003	-501.18451	966.89136	1329.23718	-498.45486	977.4339	1548.83716	-658.4942	999.34308	1358.79065	-650.08411	1007.93945	1526.724	-551.78076	648.57147	1275.50769	-532.98053	487.21387	1294.40015	-725.81616	335.59018	1303.03735	-857.79321	226.6189	1338.78198	-890.50812	245.47435	1388.40527	-802.00183	91.45556	1333.10156	-541.51678	643.44073	1599.85693	-527.09308	520.57184	1569.78882	-574.65082	256.38947	1559.26563	-587.27045	73.19675	1503.90759	-626.94153	50.13217	1458.3667	-432.42657	38.33853	1501.40857	-593.953	1713.84448	1441.62268	NaN	NaN	NaN	NaN	NaN	NaN	NaN	NaN	NaN	NaN	NaN	NaN	NaN	NaN	NaN
81	0.8	-485.48669	1675.28467	1379.85901	-482.03198	1662.76648	1511.05859	-619.73474	1622.92932	1382.4635	-614.6214	1615.87085	1511.76904	-622.22559	1463.84875	1437.21252	-660.22766	1136.25769	1440.95886	-511.64301	1385.6582	1436.32153	-473.70706	1209.31128	1428.45679	-694.49036	1293.62036	1515.93689	-570.12488	1418.1355	1274.72937	-568.28998	1213.73438	1207.37024	-565.57892	1100.60645	1199.19714	-520.35504	957.19696	1175.07092	-433.44766	858.2312	1207.62317	-496.50055	840.28131	1180.13171	-439.16891	770.86499	1171.08472	-554.12732	1417.12256	1597.47351	-592.71802	1219.02832	1685.43237	-585.45117	1097.3385	1698.5343	-571.18195	978.27899	1717.33008	-510.7196	838.65387	1689.9696	-566.24677	840.3205	1727.95593	-530.48706	763.91846	1731.83618	-490.80396	968.10223	1330.52307	-489.63928	977.80896	1550.41125	-648.61426	1000.19055	1359.69836	-641.06805	1008.26678	1527.72827	-537.58289	650.30634	1276.07776	-516.2923	489.20575	1294.99158	-706.32764	334.5278	1304.2832	-836.42346	223.16301	1340.22729	-869.81287	240.7493	1390.06311	-776.25433	90.29293	1333.37781	-535.87744	643.34839	1600.52234	-522.60583	520.20227	1570.64734	-572.43939	256.44208	1559.69226	-586.98596	73.35393	1503.94092	-626.95392	50.50417	1458.40491	-432.40771	38.23133	1501.66895	-583.45618	1714.7356	1442.07312	NaN	NaN	NaN	NaN	NaN	NaN	NaN	NaN	NaN	NaN	NaN	NaN	NaN	NaN	NaN
